<svg xmlns="http://www.w3.org/2000/svg" width="182" height="179" viewBox="0 0 182 179" fill="none"><path d="M49.2174 86.5566C48.6459 86.782 48.064 86.8135 47.4715 86.6509C46.938 86.5195 46.5118 86.2564 46.193 85.8617C45.9435 85.692 45.5554 85.3926 45.0287 84.9633C44.502 84.534 44.1104 84.063 43.8538 83.5505C43.2747 82.1513 42.7545 80.7832 42.2932 79.4463C41.877 78.0955 41.3617 76.1836 40.7476 73.7106C40.2721 71.6878 39.9301 69.6979 39.7214 67.7409C39.5438 65.7249 39.4062 63.9185 39.3086 62.3216C39.2559 60.7109 39.2103 59.4431 39.1718 58.5182C39.1194 57.5483 39.0257 57.0842 38.8906 57.1258C38.7105 57.1813 38.5444 57.6023 38.3924 58.3886C38.2264 59.13 38.064 60.0428 37.9051 61.1271C37.7463 62.2114 37.5874 63.2957 37.4285 64.38C37.2557 65.4193 37.102 66.2802 36.9672 66.9626C36.7669 68.5527 36.4819 70.2675 36.112 72.107C35.7733 73.8877 35.3982 75.6302 34.9868 77.3347C34.5753 79.0392 34.2209 80.5288 33.9235 81.8037C33.657 82.3788 33.3855 83.1774 33.1088 84.1994C32.8182 85.1764 32.4965 86.2122 32.1437 87.307C31.7908 88.4018 31.3669 89.3459 30.8719 90.1394C30.1727 91.3902 29.3417 92.2132 28.3789 92.6085C27.4611 92.99 26.5743 92.9921 25.7185 92.6149C25.5279 92.4764 25.301 92.2998 25.0376 92.0852C24.8331 91.9017 24.6235 91.6212 24.4085 91.2437C24.1936 90.8662 24.0704 90.3865 24.039 89.8046C23.7997 89.1881 23.5014 88.22 23.144 86.9004C22.8178 85.5219 22.502 84.0169 22.1964 82.3855C21.877 80.7091 21.5784 79.1002 21.3006 77.5588C21.0679 76.0036 20.8889 74.7029 20.7638 73.6569C20.281 70.6503 19.9124 67.5346 19.6582 64.3098C19.449 61.071 19.1652 57.8306 18.8071 54.5884C18.8898 53.5769 18.8927 52.4667 18.816 51.2578C18.7704 49.99 18.7526 48.8122 18.7625 47.7245C18.5023 46.7201 18.5262 45.9978 18.8343 45.5578C19.1286 45.0727 19.5441 44.8214 20.0811 44.8038C20.6491 44.7274 21.1601 44.8657 21.614 45.2188C22.2031 45.5304 22.7558 46.1242 23.2723 47.0004C23.8339 47.8627 24.0215 49.1113 23.8351 50.7464C23.6145 53.2302 23.569 56.2023 23.6987 59.6628C23.8595 63.0644 24.2959 67.1205 25.0081 71.8312C25.161 72.9674 25.3538 74.313 25.5866 75.8683C25.8193 77.4235 26.0607 78.9268 26.3108 80.3781C26.5608 81.8294 26.7865 83.0417 26.9878 84.015C27.2342 84.9744 27.4093 85.4627 27.5132 85.48C27.9012 85.4591 28.3132 85.0363 28.7493 84.2117C29.1716 83.342 29.4638 82.2906 29.6261 81.0573C30.5286 77.4267 31.367 73.6679 32.1413 69.7809C32.9467 65.8351 33.676 61.9621 34.329 58.1618C34.6921 56.6201 35.0204 54.9659 35.3141 53.1992C35.6389 51.3735 35.9604 49.6968 36.2784 48.169C36.6276 46.5824 36.9508 45.1516 37.2482 43.8767C37.5317 42.5568 37.7875 41.4673 38.0158 40.6081C38.2441 39.749 38.4794 39.2327 38.7218 39.0594C39.4561 38.8824 40.1194 38.8752 40.7118 39.0378C41.3354 39.1414 41.966 39.588 42.6038 40.3775C42.7632 40.5749 42.8586 40.9646 42.89 41.5465C42.9215 42.1284 42.9096 42.6498 42.8543 43.1105C42.9064 43.4396 42.905 44.1549 42.8501 45.2565C42.8401 46.3442 42.8874 47.5375 42.9919 48.8364C42.9163 50.1909 42.8857 51.5315 42.9001 52.8582C42.9457 54.126 43.0189 55.1634 43.1197 55.9705C43.3561 58.0176 43.5649 60.2951 43.7461 62.8029C43.9135 65.2658 44.1483 67.7078 44.4508 70.129C44.7843 72.4913 45.2061 74.5799 45.7161 76.3948C46.0596 77.6694 46.3648 78.66 46.6319 79.3665C46.9439 80.0592 47.2524 80.5804 47.5574 80.9301C47.7585 81.2626 48.098 81.4044 48.576 81.3557C49.099 81.2932 49.4557 81.0107 49.646 80.5083C50.1997 79.1052 50.6529 77.8562 51.0058 76.7614C51.3898 75.6078 51.7287 74.468 52.0227 73.342C52.3028 72.1711 52.5707 70.8806 52.8264 69.4707C53.3138 67.0526 53.7543 64.4025 54.148 61.5202C54.5728 58.5791 54.937 55.6813 55.2406 52.8269C55.5892 49.9585 55.8774 47.454 56.1051 45.3131C56.2113 42.6181 56.29 40.4738 56.3413 38.8804C56.4376 37.273 56.5774 36.0467 56.7606 35.2014C56.9438 34.3561 57.2189 33.729 57.586 33.3201C57.7556 33.0706 58.043 32.8835 58.4482 32.7586C58.8535 32.6337 59.3142 32.6889 59.8304 32.9243C60.0661 33.0489 60.3138 33.293 60.5738 33.6566C60.8649 33.9613 61.0712 34.3907 61.1927 34.9449C61.1895 35.7347 61.1381 37.0077 61.0384 38.764C60.9838 40.5065 60.8876 42.4342 60.7499 44.5473C60.6123 46.6604 60.4694 48.6765 60.3213 50.5956C60.1732 52.5147 60.011 54.0684 59.8349 55.2566C59.631 56.3548 59.4079 57.311 59.1658 58.1251C58.9237 58.9392 58.8581 59.5264 58.9691 59.8866C59.0246 60.0667 58.9729 60.6989 58.8141 61.7832C58.6413 62.8225 58.3959 64.106 58.0779 65.6338C57.8049 67.1477 57.4782 68.7274 57.0979 70.3729C56.7176 72.0185 56.3476 73.5376 55.9879 74.9303C55.6283 76.323 55.2979 77.4108 54.9969 78.1938C54.3014 79.9365 53.5521 81.4246 52.7489 82.6581C51.9909 83.8778 51.2915 84.8082 50.651 85.4493C50.0104 86.0904 49.5325 86.4595 49.2174 86.5566ZM65.5145 74.9527C65.2234 74.648 64.915 74.4472 64.5893 74.3503C64.2498 74.2084 64.0523 74.0475 63.9968 73.8674C63.9413 73.6872 63.8633 73.5141 63.7627 73.3479C63.6934 73.1227 63.5409 72.9479 63.3053 72.8233C62.9969 72.6225 62.8321 72.0077 62.8109 70.9789C62.7758 69.9051 62.8583 68.5731 63.0585 66.9831C63.2449 65.348 63.523 63.6107 63.8929 61.7711C64.1421 61.2999 64.3566 60.7161 64.5364 60.0198C64.7162 59.3235 64.8684 58.8575 64.9931 58.6219C64.9375 58.4418 64.9565 58.2634 65.05 58.0867C65.1296 57.865 65.2594 57.7263 65.4395 57.6708L65.3146 57.2656C65.2452 57.0405 65.3299 56.5953 65.5686 55.9301C65.8524 55.2511 66.2123 54.4992 66.6484 53.6746C67.0707 52.805 67.5293 51.9734 68.0243 51.1799C68.5054 50.3414 68.9295 49.7177 69.2965 49.3088C70.0478 48.3871 70.8979 47.706 71.8469 47.2657C72.8408 46.8115 73.7882 46.7661 74.689 47.1294C74.8657 47.2228 75.1602 47.3786 75.5725 47.5966C75.9848 47.8147 76.4561 48.0639 76.9862 48.3443C77.5474 48.5657 78.1156 48.8097 78.6908 49.0762L81.8765 50.5349L81.7015 54.2864C81.6712 56.2679 81.9992 57.8923 82.6856 59.1599C83.4171 60.4135 84.2281 61.4454 85.1187 62.2556C85.4964 62.6815 86.0924 63.0155 86.9065 63.2577C87.7657 63.4859 88.5243 63.5479 89.1825 63.4437C89.5565 63.3778 89.9359 63.4088 90.3204 63.5368C90.705 63.6648 90.9736 63.9764 91.1262 64.4717C91.2649 64.922 91.2859 65.3099 91.1891 65.6356C91.0922 65.9612 90.8325 66.2385 90.41 66.4673C88.9797 67.1053 87.4728 67.1752 85.8896 66.6771C84.3514 66.1651 82.7228 65.04 81.0039 63.3018C80.7406 63.0871 80.3403 62.6682 79.8031 62.0449C79.2971 61.3627 78.9868 60.916 78.8724 60.7047C78.7617 60.9853 78.5558 61.5171 78.2548 62.3001C77.9399 63.0381 77.689 63.5838 77.5021 63.9372C75.3043 68.1642 73.2081 71.2013 71.2137 73.0485C69.2504 74.8367 67.3506 75.4715 65.5145 74.9527ZM66.7804 70.4212C66.8775 70.7364 67.3503 70.5907 68.1987 69.9841C69.0782 69.3187 69.9421 68.3622 70.7902 67.1148C71.9187 65.3373 73.0056 63.4247 74.0508 61.3771C75.1411 59.3155 75.9509 57.4637 76.4802 55.8215L77.2168 52.9322C76.4474 52.0354 75.737 51.4901 75.0857 51.2964C74.4655 51.0438 73.9754 50.973 73.6151 51.084C73.0298 51.2644 72.3183 52.0753 71.4806 53.5166C70.688 54.9441 69.9163 56.7596 69.1656 58.963C68.4148 61.1665 67.7871 63.5292 67.2825 66.0512C67.1097 67.0904 66.9751 68.0933 66.8785 69.0598C66.8131 69.9674 66.7804 70.4212 66.7804 70.4212ZM96.4108 67.5762C95.8878 67.6387 95.2937 67.5507 94.6285 67.3119C93.9945 67.0143 93.3916 66.6578 92.8198 66.2423C92.2792 65.768 91.872 65.3265 91.5982 64.9179C91.5705 64.8278 91.4682 64.7361 91.2915 64.6426C91.1598 64.5353 91.094 64.4816 91.094 64.4816C90.8723 64.4021 90.5793 63.8514 90.2152 62.8297C89.8822 61.7491 89.582 60.5351 89.3147 59.1877C89.0474 57.8403 88.8858 56.7561 88.8301 55.9352C88.8332 55.1454 88.8726 54.0733 88.9482 52.7188C89.0099 51.3194 89.0458 50.0758 89.0557 48.9881L89.6721 44.5089L86.7416 44.5985C86.3987 44.6055 86.073 44.5087 85.7646 44.3079C85.5013 44.0932 85.3418 43.8959 85.2863 43.7158C85.1753 43.3556 85.2461 42.8654 85.4987 42.2452C85.7375 41.58 85.9469 41.2197 86.127 41.1642C86.366 41.1398 86.7782 41.0375 87.3635 40.8571C87.9939 40.6628 88.5948 40.453 89.1662 40.2276C89.7377 40.0022 90.084 39.8462 90.2052 39.7595C90.3576 39.6139 90.503 39.4459 90.6415 39.2553C90.7661 39.0197 90.8248 38.7304 90.8178 38.3875C90.8903 37.8228 90.9541 37.3101 91.0094 36.8494C91.0507 36.3436 91.1457 35.772 91.2944 35.1346C91.4292 34.4521 91.5242 33.8805 91.5794 33.4198C91.6797 32.9452 91.8439 32.2783 92.0722 31.4191C92.2002 31.0346 92.3299 30.5755 92.4613 30.042C92.5927 29.5085 92.8125 29.0217 93.1206 28.5817C93.4148 28.0966 93.7715 27.8141 94.1906 27.7343C94.6408 27.5955 95.2939 27.7147 96.1496 28.0919C96.6486 28.4312 96.9553 28.7065 97.0697 28.9177C97.1841 29.129 97.1358 29.6122 96.9248 30.3675C96.8005 31.2439 96.6086 32.1412 96.3492 33.0592C96.1348 33.9634 95.943 34.8607 95.7736 35.751C95.3585 36.9636 95.3968 37.568 95.8887 37.5643C96.3806 37.5607 97.6136 37.0821 99.5876 36.1287C100.824 35.5011 101.79 35.2773 102.487 35.4571C103.169 35.5919 103.673 36.0282 103.999 36.7659C104.467 37.8049 104.556 38.4924 104.265 38.8286C103.974 39.1647 102.973 39.5964 101.262 40.1237C100.237 40.6368 99.349 41.0338 98.5974 41.3147C97.832 41.5506 97.2692 41.724 96.909 41.835C96.3375 42.0604 95.9617 42.2009 95.7816 42.2564C95.6015 42.3119 95.3452 42.4401 95.0128 42.6412C94.6803 42.8423 94.4587 43.0831 94.348 43.3637C94.2684 43.5855 94.1941 43.9042 94.125 44.3199C94.0004 44.5555 93.8759 45.1115 93.7516 45.988C93.6273 46.8644 93.4337 47.8361 93.1709 48.9032C93.1233 50.9885 93.1657 53.0461 93.2983 55.0759C93.4169 57.0608 93.6117 58.9728 93.8827 60.8121C94.0495 61.9932 94.3148 62.7742 94.6787 63.1551C95.0287 63.491 95.6903 63.5582 96.6636 63.3569C97.1728 63.2493 97.9607 63.0065 99.0275 62.6284C100.125 62.1915 100.962 61.7859 101.537 61.4115C101.963 61.0337 102.411 60.649 102.882 60.2574C103.339 59.8208 103.751 59.398 104.118 58.9891C104.454 58.6391 104.79 58.289 105.126 57.939C105.448 57.544 105.609 57.3465 105.609 57.3465C105.723 56.9169 105.936 56.728 106.247 56.7798C106.559 56.8317 106.888 57.1 107.235 57.5848C107.401 58.1251 107.462 58.7226 107.418 59.3773C107.373 60.032 106.755 60.9866 105.564 62.2411C103.926 64.1262 102.294 65.4675 100.666 66.2649C99.0692 67.0034 97.6509 67.4405 96.4108 67.5762ZM116.141 60.3129C115.15 60.6182 114.393 60.8021 113.87 60.8647C113.347 60.9272 112.923 60.9101 112.597 60.8133C112.271 60.7164 111.88 60.5659 111.423 60.3617C111.132 60.057 110.788 59.7437 110.393 59.4217C109.998 59.0997 109.683 58.8764 109.447 58.7518C109.059 58.1319 108.699 57.2817 108.366 56.201C108.078 55.1065 107.852 53.8942 107.689 52.5641C107.57 51.2202 107.57 49.9385 107.687 48.7191C107.756 48.3034 107.803 47.8946 107.827 47.4928C107.851 47.091 107.863 46.89 107.863 46.89C107.793 46.6649 107.897 46.0414 108.174 45.0194C108.495 43.9835 108.848 42.8887 109.232 41.735C109.661 40.5675 110.039 39.7117 110.364 39.1677C110.568 38.7104 110.923 38.182 111.428 37.5825C111.979 36.9691 112.474 36.4961 112.914 36.1633C113.354 35.8306 113.8 35.5204 114.254 35.2327C114.753 34.9311 115.34 34.6763 116.015 34.4681C116.645 34.2739 117.272 34.2286 117.896 34.3322C118.52 34.4359 119.183 34.7491 119.886 35.2718C120.947 35.8325 121.647 36.5043 121.987 37.287C122.357 38.0108 122.578 38.8057 122.647 39.6716C122.7 40.6415 122.622 41.4296 122.415 42.0359C122.193 42.5972 121.85 42.9247 121.386 43.0184C120.922 43.1121 120.3 42.934 119.521 42.484C119.23 42.1793 119.049 41.9144 118.98 41.6893C118.897 41.4191 118.869 41.0086 118.896 40.4579C118.882 39.772 118.681 39.1191 118.293 38.4992C117.904 37.8793 117.508 37.6318 117.103 37.7567C116.517 37.9371 115.948 38.4084 115.394 39.1708C114.871 39.8742 114.367 40.7196 113.883 41.7071C113.679 42.1644 113.402 42.866 113.052 43.8118C112.734 44.6987 112.443 45.6757 112.181 46.7427C111.904 47.7647 111.71 48.7364 111.6 49.6579C111.562 51.2964 111.525 52.6144 111.487 53.6121C111.495 54.5959 111.498 55.0878 111.498 55.0878C111.554 55.2679 111.654 55.4341 111.8 55.5864C111.977 55.6799 112.093 55.8167 112.148 55.9968C112.315 56.5371 112.762 56.8677 113.489 56.9886C114.082 57.1512 114.722 57.1509 115.412 56.9878C116.087 56.7797 116.851 56.2978 117.703 55.5423C118.312 54.9601 118.842 54.2792 119.292 53.4996C119.787 52.7061 120.325 51.9733 120.907 51.301C121.305 50.8332 121.604 50.4451 121.805 50.1367C122.051 49.8145 122.201 49.7434 122.257 49.9235C122.312 50.1036 122.408 50.1728 122.543 50.1312C122.678 50.0896 122.808 49.951 122.932 49.7154C123.092 49.2719 123.315 48.9566 123.602 48.7694C123.876 48.5372 124.132 48.4089 124.371 48.3846C124.641 48.3013 124.797 48.3272 124.839 48.4623C124.874 48.8953 125.068 49.2052 125.421 49.3921C125.477 49.5722 125.485 49.8407 125.447 50.1975C125.441 50.4954 125.375 50.7622 125.25 50.9978C125.122 51.3823 124.896 51.8466 124.57 52.3906C124.29 52.9207 124.018 53.3989 123.755 53.825C123.478 54.2062 123.34 54.3968 123.34 54.3968C123.146 54.4073 122.979 54.5078 122.841 54.6984C122.748 54.8751 122.639 55.0812 122.514 55.3168C122.251 55.743 121.989 56.0947 121.73 56.3719C121.456 56.6042 121.229 56.748 121.049 56.8035C120.79 57.0807 120.577 57.2696 120.41 57.3701C120.289 57.4568 120.256 57.5902 120.312 57.7703C120 58.3593 119.535 58.8479 118.915 59.2362C118.326 59.5655 117.401 59.9244 116.141 60.3129ZM152.199 49.2749C151.413 49.7637 150.81 50.048 150.391 50.1278C149.958 50.1627 149.3 49.9464 148.417 49.4792C147.817 48.9737 147.283 48.5219 146.816 48.1237C146.348 47.7256 145.875 46.91 145.396 45.677C145.087 44.8354 144.848 43.8985 144.678 42.8663C144.539 41.7752 144.377 41.0115 144.194 40.5751C144.04 38.7981 143.766 37.4282 143.371 36.4654C143.007 35.4437 142.712 34.9675 142.487 35.0369C141.964 35.0995 141.216 35.8723 140.243 37.3553C139.302 38.7794 138.262 40.6036 137.123 42.828C136.015 44.9935 134.936 47.249 133.883 49.5946C133.389 51.0289 133.051 52.0942 132.872 52.7905C132.678 53.4418 132.491 53.7952 132.311 53.8507C131.996 53.9479 131.533 53.9671 130.924 53.9085C130.314 53.8499 129.758 53.7254 129.256 53.5351C128.739 53.2998 128.417 53.054 128.289 52.7977C128.233 52.6176 128.2 52.1101 128.189 51.2753C128.165 50.3955 128.15 49.3892 128.147 48.2565C128.188 47.1099 128.204 46.0447 128.197 45.0609C128.19 44.0771 128.198 43.3843 128.222 42.9825C128.267 41.6869 128.302 40.1229 128.329 38.2905C128.387 36.3991 128.44 34.7312 128.488 33.2867C128.488 32.6458 128.546 31.7157 128.664 30.4964C128.767 29.2319 128.87 27.9675 128.974 26.7031C129.077 25.4387 129.136 24.5086 129.149 23.9128C129.173 23.511 129.227 22.8043 129.309 21.7928C129.378 20.7362 129.442 19.5827 129.5 18.3322C129.604 17.0678 129.69 15.9073 129.758 14.8508C129.858 13.7353 129.907 12.9316 129.903 12.4398C129.733 12.0484 129.645 11.6813 129.637 11.3383C129.662 10.9365 129.713 10.6247 129.793 10.403C129.973 10.3475 130.176 10.285 130.401 10.2157C130.612 10.1013 130.718 10.0441 130.718 10.0441C130.69 9.954 130.898 9.98855 131.341 10.1477C131.785 10.3069 132.226 10.5405 132.666 10.8486C133.138 11.0978 133.415 11.3575 133.498 11.6276C133.904 12.1436 134.162 12.9021 134.273 13.9031C134.371 14.8592 134.321 16.3781 134.125 18.4601C133.851 19.3331 133.689 20.5664 133.638 22.1598C133.632 23.7394 133.556 25.0939 133.411 26.2232C133.328 26.5939 133.198 27.3733 133.022 28.5616C132.891 29.7359 132.725 31.1181 132.525 32.7082C132.37 34.2844 132.244 35.8761 132.148 37.4835C132.038 39.0458 131.999 40.4383 132.03 41.6611C131.913 42.8805 131.977 43.6494 132.224 43.968C132.47 44.2866 132.885 43.7149 133.47 42.2528C134.314 40.5135 135.219 38.7309 136.185 36.905C137.151 35.079 138.096 33.506 139.02 32.1858C139.975 30.8067 140.85 30.0442 141.643 29.8984C142.076 29.8636 142.587 30.0019 143.176 30.3134C143.81 30.6111 144.442 30.9832 145.073 31.4298C145.704 31.8763 146.192 32.342 146.539 32.8268C146.927 33.4467 147.22 33.9974 147.418 34.4788C147.66 34.9463 147.912 35.6823 148.172 36.6868C148.418 37.6462 148.771 39.1892 149.229 41.3159C149.43 42.9301 149.59 44.0887 149.708 44.7918C149.813 45.45 149.974 45.8933 150.192 46.1218C150.456 46.3365 150.816 46.5459 151.273 46.7501C152.115 47.0822 152.598 47.4509 152.723 47.8562C152.893 48.2475 152.719 48.7204 152.199 49.2749ZM77.157 131.694C76.7968 131.805 76.3014 131.637 75.6708 131.191C75.0401 130.744 74.6641 130.244 74.5426 129.69C74.3656 128.955 74.2491 127.857 74.193 126.396C74.137 124.934 74.119 123.436 74.1391 121.901C74.1593 120.366 74.2246 119.138 74.335 118.217C74.2931 117.441 74.2564 116.762 74.225 116.18C74.2247 115.539 74.2194 115.122 74.2089 114.928C74.2885 114.706 74.3454 114.171 74.3797 113.322C74.459 112.46 74.4777 111.641 74.4358 110.865C74.4148 110.477 74.3868 109.746 74.3517 108.672C74.3477 107.539 74.3402 106.235 74.3292 104.759C74.3632 103.27 74.3816 101.81 74.3845 100.379C74.4324 98.9346 74.4613 97.6685 74.4712 96.5808C74.4811 95.4931 74.4825 94.7778 74.4754 94.4349C74.6691 93.7836 74.7797 93.1825 74.8072 92.6317C74.8347 92.0809 74.8432 91.7086 74.8327 91.5146C75.0474 91.2512 75.1356 90.9775 75.0974 90.6935C75.0453 90.3644 74.9914 90.1099 74.9359 89.9298C74.8666 89.7046 74.8786 89.5037 74.9721 89.327C75.1105 89.1364 75.152 88.9511 75.0965 88.771C75.235 88.5804 75.2851 88.3431 75.2469 88.0591C75.1948 87.73 75.2466 87.4182 75.4024 87.1237L75.3863 85.8715L79.3502 84.576C79.4267 85.1441 79.4997 85.8611 79.5694 86.727C79.6252 87.548 79.5166 88.7154 79.2436 90.2293C79.2959 91.1992 79.2755 92.0929 79.1824 92.9104C79.1342 93.7141 79.1673 94.2216 79.2817 94.4328C79.2194 94.5506 79.1556 95.0633 79.0901 95.9709C79.0697 96.8646 79.0373 97.9593 78.9928 99.2548C78.9934 100.536 78.9714 101.825 78.927 103.121C78.9275 104.402 78.9089 105.542 78.8713 106.54C78.8647 107.478 78.8511 108.074 78.8305 108.327C78.6923 109.158 78.6131 110.341 78.593 111.876C78.5729 113.411 78.4802 115.51 78.3151 118.174C78.1769 119.005 78.0597 120.224 77.9634 121.832C77.9121 123.425 77.9092 124.856 77.9548 126.124C78.0007 128.032 78.0151 129.359 77.9981 130.104C78.04 130.88 78.0004 131.311 77.8791 131.398C77.7718 131.529 77.5311 131.628 77.157 131.694ZM65.2928 91.2745C64.0459 91.708 63.0796 91.9319 62.3937 91.946C61.7529 91.9463 61.4115 91.5585 61.3696 90.7825C61.3382 90.2006 61.506 89.7052 61.873 89.2963C62.24 88.8874 62.8304 88.4836 63.6443 88.0848C64.1118 87.8422 64.7075 87.5353 65.4313 87.1644C66.2001 86.7796 66.9239 86.4086 67.6027 86.0515C69.0331 85.4135 70.2002 84.8813 71.1041 84.4548C72.0531 84.0145 73.0315 83.5897 74.0393 83.1806C75.0472 82.7714 76.3252 82.2789 77.8733 81.7032C79.1513 81.2108 80.2337 80.8033 81.1203 80.4808C82.0381 80.0994 82.497 79.9086 82.497 79.9086C82.6321 79.867 83.1187 79.7663 83.9569 79.6066C84.7952 79.4469 85.7078 79.2889 86.695 79.1326C87.6822 78.9763 88.4287 78.9188 88.9344 78.9602C90.0394 78.8662 90.8794 78.9524 91.4546 79.2189C92.0747 79.4715 92.5928 79.9528 93.0088 80.6627C93.3104 81.1614 93.4144 81.4991 93.321 81.6758C93.2137 81.8075 93.0077 82.0189 92.7029 82.31C91.7645 82.9443 91.0476 83.3378 90.5523 83.4904C90.057 83.643 89.4595 83.7039 88.7598 83.673C88.4653 83.5173 88.1327 83.3979 87.762 83.3149C87.4363 83.2181 86.8994 83.2356 86.1513 83.3676C85.4342 83.4406 84.3189 83.6611 82.8053 84.0289C81.5862 84.5525 80.5039 84.96 79.5584 85.2514C78.6128 85.5428 78.1747 85.801 78.2441 86.0261L74.3218 87.4567L71.1164 88.8143C70.68 88.998 70.0705 89.2598 69.2878 89.5996C68.4912 89.8944 67.724 90.2048 66.9863 90.5307C66.2348 90.8116 65.6703 91.0595 65.2928 91.2745ZM97.9819 118.029C97.6806 118.171 97.3429 118.276 96.9688 118.342C96.6259 118.349 96.2621 118.288 95.8776 118.16C95.4064 117.911 95.0755 117.717 94.8849 117.579C94.6804 117.395 94.5314 117.071 94.4376 116.607C94.3889 116.129 94.3314 115.383 94.2652 114.368C94.2683 113.578 94.2332 112.504 94.1599 111.146C94.0727 109.743 94.0149 108.356 93.9866 106.984C93.8997 106.222 93.8509 105.424 93.8401 104.589C93.8744 103.74 93.9295 102.959 94.0054 102.246C94.0674 101.487 94.1104 100.907 94.1345 100.505C94.1062 99.1332 94.104 97.926 94.1278 96.8833C94.1966 95.8268 94.2913 94.6143 94.412 93.246C94.5188 91.8326 94.6132 89.9794 94.6954 87.6862C94.8534 84.6793 94.965 82.4017 95.0302 80.8533C95.1265 79.246 95.19 78.0924 95.2209 77.3927C95.2829 76.634 95.3035 76.0607 95.2825 75.6728C95.1715 75.3126 95.1783 75.0147 95.3029 74.7791C95.4726 74.5296 95.715 74.3563 96.0301 74.2592C96.6605 74.0649 97.2529 74.2274 97.8074 74.7468C98.393 75.2073 98.8626 75.8514 99.2163 76.6791C99.5561 77.4618 99.6569 78.2689 99.5187 79.1003C99.2978 80.9433 99.129 83.1152 99.0123 85.6163C98.8818 88.0723 98.7668 90.4989 98.6673 92.896C98.554 95.2481 98.3886 97.2712 98.1711 98.9652C98.2266 99.1453 98.2562 99.4813 98.2599 99.9731C98.2636 100.465 98.2309 100.919 98.1618 101.335C98.0927 101.75 98.0166 102.143 97.9337 102.514C97.8957 102.871 97.8767 103.049 97.8767 103.049C97.9322 103.229 97.9688 103.588 97.9863 104.125C98.0039 104.662 98.0111 105.325 98.008 106.115C97.9944 106.711 97.9843 107.478 97.9778 108.417C98.0163 109.342 98.0807 110.111 98.171 110.724C98.2713 110.249 98.5567 109.496 99.0274 108.463C99.498 107.431 99.9584 106.525 100.408 105.745C100.934 104.893 101.53 103.945 102.195 102.902C102.859 101.859 103.406 101.074 103.835 100.547C104.265 100.021 104.64 99.5599 104.962 99.1649C105.316 98.7109 105.492 98.484 105.492 98.484C105.437 98.3039 105.476 98.193 105.611 98.1514C105.778 98.0509 105.951 97.9728 106.131 97.9173C106.311 97.8618 106.394 97.8116 106.38 97.7665C106.411 97.7076 106.399 97.5881 106.344 97.408C106.274 97.1829 106.46 96.904 106.899 96.5712C107.384 96.2246 107.95 95.9022 108.598 95.6041C109.277 95.247 109.841 94.9991 110.292 94.8603C110.832 94.6938 111.294 94.6745 111.679 94.8025C112.063 94.9306 112.621 95.301 113.353 95.9138C114.115 96.4677 114.723 97.2416 115.177 98.2356C115.663 99.1707 115.892 100.234 115.865 101.426C115.976 101.786 116.068 102.324 116.141 103.041C116.245 103.7 116.408 104.389 116.63 105.109L116.891 107.395L117.971 107.062C118.332 106.951 118.69 106.915 119.047 106.953C119.39 106.946 119.561 106.942 119.561 106.942C119.797 107.067 120.032 107.191 120.268 107.316C120.49 107.396 120.691 107.408 120.871 107.352C121.411 107.186 121.683 107.348 121.687 107.84C121.677 108.287 121.457 108.774 121.028 109.301C120.169 110.354 119.289 111.019 118.389 111.297C117.533 111.561 116.634 111.443 115.692 110.945C114.736 110.401 114.022 109.685 113.55 108.795C113.079 107.904 112.801 106.684 112.717 105.132C112.287 103.095 111.933 101.627 111.655 100.726C111.409 99.7666 111.038 99.3632 110.543 99.5158C110.093 99.6546 109.402 100.213 108.471 101.19C107.525 102.122 106.514 103.321 105.438 104.787C104.361 106.252 103.342 107.824 102.379 109.501C101.417 111.178 100.694 112.83 100.209 114.459C99.8773 115.301 99.5468 116.068 99.218 116.761C98.8753 117.409 98.4633 117.832 97.9819 118.029ZM124.028 111.63C123.557 111.381 123.148 111.014 122.801 110.529C122.5 110.03 122.288 109.504 122.167 108.949C122.045 108.395 122.019 107.91 122.088 107.495C121.977 107.134 121.939 106.85 121.974 106.643C122.039 106.376 122.022 106.159 121.921 105.993C121.821 105.827 121.769 105.498 121.765 105.006C121.761 104.514 121.765 104.045 121.775 103.598C121.868 102.78 121.942 101.821 121.997 100.719C122.038 99.5725 122.064 98.4553 122.073 97.3677C122.083 96.28 122.09 95.3412 122.093 94.5514C122.096 93.7616 122.092 93.2697 122.082 93.0758C121.915 92.5355 122.185 92.1318 122.892 91.8647C123.377 91.5181 123.782 91.3933 124.108 91.4901C124.42 91.5419 124.912 91.8587 125.584 92.4403C126.055 92.6895 126.357 93.1882 126.489 93.9364C126.62 94.6846 126.605 95.6753 126.443 96.9085C126.374 97.3242 126.308 97.9114 126.246 98.67C126.229 99.4148 126.259 100.071 126.336 100.639C126.266 101.055 126.201 101.642 126.139 102.401C126.108 103.101 126.093 103.771 126.093 104.412C126.072 104.665 126.086 105.03 126.135 105.508C126.17 105.941 126.196 106.426 126.214 106.963C126.217 107.455 126.162 107.915 126.048 108.345C126.212 110.316 126.162 111.515 125.899 111.941C125.681 112.353 125.057 112.249 124.028 111.63ZM122.129 82.1901C121.835 82.0344 121.535 81.7816 121.23 81.4319C120.911 81.0372 120.674 80.6666 120.518 80.3203C120.348 79.9289 120.33 79.7124 120.465 79.6708C120.812 79.5148 121.122 79.0002 121.395 78.1272C121.668 77.2542 121.676 76.5614 121.42 76.0488C121.364 75.8687 121.383 75.6903 121.477 75.5136C121.556 75.2918 121.679 75.1307 121.846 75.0302C122.275 74.5035 122.779 74.2989 123.357 74.4164C123.967 74.475 124.608 74.7952 125.28 75.3768C125.949 76.1075 126.284 76.7932 126.284 77.434C126.27 78.0298 126.011 78.9479 125.506 80.1882C125.108 81.2969 124.63 81.9864 124.073 82.2569C123.56 82.5134 122.912 82.4912 122.129 82.1901ZM138.725 108.802C137.627 109.238 136.526 109.504 135.421 109.598C134.361 109.678 133.388 109.559 132.501 109.241C131.645 108.863 130.957 108.311 130.437 107.584C129.928 107.051 129.638 106.672 129.569 106.447C129.486 106.176 129.574 105.903 129.834 105.625C130.194 105.514 130.544 105.53 130.883 105.672C131.254 105.755 131.722 105.832 132.286 105.905C133.142 106.282 134.05 106.348 135.009 106.101C136.013 105.841 136.865 105.406 137.565 104.796C138.264 104.186 138.576 103.597 138.499 103.029C138.444 102.849 138.279 102.554 138.005 102.146C137.732 101.737 137.428 101.313 137.096 100.873C135.353 99.5368 133.932 98.1259 132.833 96.6403C131.765 95.0958 131.065 93.7833 130.732 92.7026C130.482 91.8922 130.466 90.9604 130.684 89.9072C130.888 88.809 131.321 87.813 131.982 86.919C132.529 85.8137 133.193 84.7708 133.976 83.7901C134.758 82.8095 135.568 81.9189 136.406 81.1183C137.289 80.3039 138.101 79.6593 138.842 79.1844C139.338 79.0317 140.011 78.8981 140.863 78.7834C141.716 78.6687 142.327 78.6529 142.698 78.7359C143.248 78.7633 143.874 79.1129 144.574 79.7846C145.26 80.4113 145.721 81.1074 145.957 81.8728C146.054 82.188 146.089 82.621 146.061 83.1718C146.034 83.7226 145.922 84.3981 145.725 85.1984C145.697 85.7492 145.64 86.2844 145.554 86.804C145.453 87.2786 145.431 87.606 145.487 87.7861C145.414 88.3507 145.175 88.6955 144.77 88.8204C144.396 88.8864 143.951 88.8017 143.435 88.5664C142.949 88.2721 142.511 87.8895 142.119 87.4186C141.731 86.7987 141.497 86.2792 141.417 85.8601C141.324 85.396 141.358 84.8677 141.521 84.2753C141.863 83.6274 142.007 83.2134 141.951 83.0333C141.896 82.8532 141.62 82.8394 141.125 82.9921C140.81 83.0892 140.287 83.4722 139.556 84.141C138.857 84.751 138.132 85.5169 137.38 86.4386C136.66 87.3014 136.066 88.1746 135.599 89.0582C134.993 90.1322 134.656 90.8772 134.587 91.2929C134.563 91.6947 134.669 92.2783 134.905 93.0438C135.099 93.6741 135.477 94.4205 136.038 95.2828C136.645 96.1312 137.154 96.6644 137.567 96.8825C137.567 96.8825 137.821 97.1491 138.331 97.6823C138.826 98.1705 139.403 98.6829 140.062 99.2196C142.255 101.699 143.231 103.666 142.99 105.121C142.748 106.576 141.326 107.803 138.725 108.802Z" fill="#FCF3FF"></path><path d="M117.582 136.571C116.28 139.781 120.212 144.192 121.887 146.496C128.068 154.996 139.114 160.273 148.173 165.336" stroke="#FCF3FF" stroke-width="3" stroke-linecap="round"></path><path d="M144.751 152.039C144.176 153.402 145.087 155.074 145.655 156.259C147.287 159.662 149.457 163.534 151.694 166.562C152.129 167.151 151.857 166.996 151.191 166.833C149.158 166.339 147.034 166.237 144.944 166.153C138.406 165.89 131.963 167.416 125.48 167.925" stroke="#FCF3FF" stroke-width="3" stroke-linecap="round"></path></svg>